<svg width="461" height="606" viewBox="0 0 461 606" fill="none" xmlns="http://www.w3.org/2000/svg">
<path d="M118.889 352.159L232.222 502L460 182L460.555 605.333H397.222L396.666 467.556C396.666 452.37 396.852 435.889 397.222 418.111C397.592 399.963 398.889 379.407 401.111 356.444C389.629 376.815 378.333 394.778 367.222 410.333C356.481 425.519 346.666 439.593 337.777 452.556L230 605.333L118.889 452.556V352.159Z" fill="#B9B6B5"/>
<path d="M0 604L0 0L232.222 320L460 0V90.5L401.111 174.444C389.63 194.815 378.333 212.778 367.222 228.333C356.481 243.519 346.667 257.593 337.778 270.556L230 423.333L118.889 270.556C109.63 257.593 99.6296 243.519 88.8889 228.333C78.5185 212.778 67.4074 194.815 55.5556 174.444C57.7778 197.407 59.0741 217.963 59.4444 236.111C59.8148 253.889 60 270.37 60 285.556V604H0Z" fill="#62929E"/>
</svg>
