<svg width="1348" height="460" viewBox="0 0 1348 460" fill="none" xmlns="http://www.w3.org/2000/svg">
<path d="M169.25 235V108.5L117 204.5H100.5L48 108.5V235H20V57.5H50L108.75 166L167.5 57.5H197.5V235H169.25ZM288.779 57.5H315.279L384.279 235H354.779L336.029 186.75H267.529L249.029 235H219.279L288.779 57.5ZM330.529 166L302.029 88.25L272.529 166H330.529ZM519.879 82.25H460.879V235H432.629V82.25H373.379V57.5H519.879V82.25ZM665.432 210.25V235H543.682V57.5H663.182V82.25H571.682V132.75H650.932V156H571.682V210.25H665.432ZM768.316 236.25C754.15 236.25 742.15 233.833 732.316 229C722.65 224.167 714.816 217.583 708.816 209.25C702.983 200.917 698.65 191.417 695.816 180.75C693.15 170.083 691.816 159 691.816 147.5V57.5H719.816V147.5C719.816 155.667 720.65 163.583 722.316 171.25C723.983 178.75 726.65 185.5 730.316 191.5C733.983 197.5 738.9 202.25 745.066 205.75C751.4 209.25 759.15 211 768.316 211C777.65 211 785.4 209.25 791.566 205.75C797.9 202.083 802.816 197.25 806.316 191.25C809.983 185.083 812.65 178.25 814.316 170.75C815.983 163.25 816.816 155.5 816.816 147.5V57.5H845.066V147.5C845.066 159.667 843.566 171.167 840.566 182C837.733 192.667 833.233 202.083 827.066 210.25C821.066 218.25 813.233 224.583 803.566 229.25C793.9 233.917 782.15 236.25 768.316 236.25ZM987.305 99.25C985.638 97.4167 983.221 95.5 980.055 93.5C976.888 91.3333 973.138 89.3333 968.805 87.5C964.471 85.6667 959.805 84.1667 954.805 83C949.805 81.8333 944.638 81.25 939.305 81.25C927.638 81.25 918.971 83.4167 913.305 87.75C907.638 92.0833 904.805 98.0833 904.805 105.75C904.805 111.417 906.388 115.917 909.555 119.25C912.721 122.417 917.555 125.083 924.055 127.25C930.555 129.417 938.721 131.75 948.555 134.25C960.555 137.083 970.971 140.5 979.805 144.5C988.638 148.333 995.388 153.5 1000.05 160C1004.72 166.5 1007.05 175.083 1007.05 185.75C1007.05 194.75 1005.39 202.5 1002.05 209C998.721 215.5 994.055 220.833 988.055 225C982.055 229 975.138 232 967.305 234C959.471 235.833 951.055 236.75 942.055 236.75C933.221 236.75 924.388 235.833 915.555 234C906.888 232.167 898.555 229.5 890.555 226C882.721 222.333 875.471 217.917 868.805 212.75L881.555 188.75C883.721 190.917 886.805 193.333 890.805 196C894.971 198.5 899.721 200.917 905.055 203.25C910.555 205.583 916.471 207.583 922.805 209.25C929.305 210.75 935.888 211.5 942.555 211.5C953.721 211.5 962.221 209.583 968.055 205.75C974.055 201.75 977.055 196.083 977.055 188.75C977.055 182.75 975.138 178 971.305 174.5C967.471 170.833 961.888 167.75 954.555 165.25C947.221 162.75 938.471 160.25 928.305 157.75C916.638 154.583 906.888 151.167 899.055 147.5C891.221 143.667 885.305 138.833 881.305 133C877.471 127 875.555 119.417 875.555 110.25C875.555 98.5833 878.388 88.75 884.055 80.75C889.721 72.5833 897.388 66.5 907.055 62.5C916.888 58.3333 927.888 56.25 940.055 56.25C948.055 56.25 955.638 57.1667 962.805 59C969.971 60.6667 976.638 63 982.805 66C989.138 69 994.888 72.4167 1000.05 76.25L987.305 99.25Z" fill="#62929E"/>
<path d="M197.34 457H177.1V389.84C177.1 377.267 175.03 367.99 170.89 362.01C166.903 356.03 160.923 353.04 152.95 353.04C144.823 353.04 137.463 356.03 130.87 362.01C124.277 367.837 119.6 375.427 116.84 384.78V457H96.6V389.84C96.6 377.113 94.6067 367.837 90.62 362.01C86.6333 356.03 80.6533 353.04 72.68 353.04C64.7067 353.04 57.3467 355.953 50.6 361.78C44.0067 367.453 39.33 375.043 36.57 384.55V457H16.33V336.94H34.73V362.7C39.6367 353.807 46 346.983 53.82 342.23C61.64 337.323 70.4567 334.87 80.27 334.87C90.2367 334.87 98.21 337.63 104.19 343.15C110.17 348.517 113.85 355.493 115.23 364.08C120.597 354.573 127.113 347.367 134.78 342.46C142.447 337.4 151.187 334.87 161 334.87C167.9 334.87 173.65 336.173 178.25 338.78C183.003 341.233 186.76 344.76 189.52 349.36C192.28 353.807 194.273 359.097 195.5 365.23C196.727 371.363 197.34 378.033 197.34 385.24V457ZM307.24 459.3C298.194 459.3 289.914 457.69 282.4 454.47C275.04 451.097 268.6 446.573 263.08 440.9C257.714 435.073 253.497 428.403 250.43 420.89C247.517 413.377 246.06 405.403 246.06 396.97C246.06 385.623 248.667 375.273 253.88 365.92C259.094 356.567 266.3 349.053 275.5 343.38C284.854 337.707 295.51 334.87 307.47 334.87C319.584 334.87 330.087 337.783 338.98 343.61C348.027 349.283 355.004 356.797 359.91 366.15C364.97 375.35 367.5 385.317 367.5 396.05C367.5 397.583 367.424 399.117 367.27 400.65C367.27 402.03 367.194 403.103 367.04 403.87H267.45C268.064 411.69 270.21 418.667 273.89 424.8C277.724 430.78 282.63 435.533 288.61 439.06C294.59 442.433 301.03 444.12 307.93 444.12C315.29 444.12 322.19 442.28 328.63 438.6C335.224 434.92 339.747 430.09 342.2 424.11L359.68 428.94C357.074 434.767 353.164 439.98 347.95 444.58C342.89 449.18 336.834 452.783 329.78 455.39C322.88 457.997 315.367 459.3 307.24 459.3ZM266.76 389.84H348.64C348.027 382.02 345.804 375.12 341.97 369.14C338.137 363.16 333.23 358.483 327.25 355.11C321.27 351.737 314.677 350.05 307.47 350.05C300.417 350.05 293.9 351.737 287.92 355.11C281.94 358.483 277.034 363.16 273.2 369.14C269.52 375.12 267.374 382.02 266.76 389.84ZM456.469 459.3C446.502 459.3 437.149 457.69 428.409 454.47C419.669 451.097 412.156 446.113 405.869 439.52L413.689 425.26C420.589 431.7 427.489 436.3 434.389 439.06C441.289 441.82 448.342 443.2 455.549 443.2C463.829 443.2 470.576 441.667 475.789 438.6C481.002 435.38 483.609 430.703 483.609 424.57C483.609 420.123 482.229 416.827 479.469 414.68C476.862 412.533 473.106 410.77 468.199 409.39C463.292 407.857 457.466 406.17 450.719 404.33C442.439 401.877 435.462 399.27 429.789 396.51C424.116 393.75 419.822 390.3 416.909 386.16C413.996 382.02 412.539 376.807 412.539 370.52C412.539 362.853 414.532 356.413 418.519 351.2C422.506 345.833 427.949 341.77 434.849 339.01C441.902 336.25 449.876 334.87 458.769 334.87C467.662 334.87 475.712 336.25 482.919 339.01C490.126 341.77 496.336 345.833 501.549 351.2L492.349 365.23C487.596 360.323 482.382 356.72 476.709 354.42C471.036 351.967 464.672 350.74 457.619 350.74C453.479 350.74 449.416 351.277 445.429 352.35C441.442 353.27 438.146 355.033 435.539 357.64C432.932 360.093 431.629 363.62 431.629 368.22C431.629 372.053 432.626 375.12 434.619 377.42C436.766 379.567 439.832 381.407 443.819 382.94C447.959 384.473 452.942 386.16 458.769 388C467.816 390.607 475.636 393.213 482.229 395.82C488.976 398.427 494.189 401.8 497.869 405.94C501.549 410.08 503.389 415.83 503.389 423.19C503.389 434.537 499.096 443.43 490.509 449.87C481.922 456.157 470.576 459.3 456.469 459.3ZM594.074 459.3C584.107 459.3 574.754 457.69 566.014 454.47C557.274 451.097 549.761 446.113 543.474 439.52L551.294 425.26C558.194 431.7 565.094 436.3 571.994 439.06C578.894 441.82 585.947 443.2 593.154 443.2C601.434 443.2 608.181 441.667 613.394 438.6C618.607 435.38 621.214 430.703 621.214 424.57C621.214 420.123 619.834 416.827 617.074 414.68C614.467 412.533 610.711 410.77 605.804 409.39C600.897 407.857 595.071 406.17 588.324 404.33C580.044 401.877 573.067 399.27 567.394 396.51C561.721 393.75 557.427 390.3 554.514 386.16C551.601 382.02 550.144 376.807 550.144 370.52C550.144 362.853 552.137 356.413 556.124 351.2C560.111 345.833 565.554 341.77 572.454 339.01C579.507 336.25 587.481 334.87 596.374 334.87C605.267 334.87 613.317 336.25 620.524 339.01C627.731 341.77 633.941 345.833 639.154 351.2L629.954 365.23C625.201 360.323 619.987 356.72 614.314 354.42C608.641 351.967 602.277 350.74 595.224 350.74C591.084 350.74 587.021 351.277 583.034 352.35C579.047 353.27 575.751 355.033 573.144 357.64C570.537 360.093 569.234 363.62 569.234 368.22C569.234 372.053 570.231 375.12 572.224 377.42C574.371 379.567 577.437 381.407 581.424 382.94C585.564 384.473 590.547 386.16 596.374 388C605.421 390.607 613.241 393.213 619.834 395.82C626.581 398.427 631.794 401.8 635.474 405.94C639.154 410.08 640.994 415.83 640.994 423.19C640.994 434.537 636.701 443.43 628.114 449.87C619.527 456.157 608.181 459.3 594.074 459.3ZM690.509 457V336.94H710.749V457H690.509ZM690.509 314.4V289.1H710.749V314.4H690.509ZM759.386 422.27C759.386 414.603 761.533 408.01 765.826 402.49C770.273 396.817 776.33 392.447 783.996 389.38C791.663 386.313 800.556 384.78 810.676 384.78C816.043 384.78 821.716 385.24 827.696 386.16C833.676 386.927 838.966 388.153 843.566 389.84V381.1C843.566 371.9 840.806 364.693 835.286 359.48C829.766 354.113 821.946 351.43 811.826 351.43C805.233 351.43 798.87 352.657 792.736 355.11C786.756 357.41 780.393 360.783 773.646 365.23L766.286 350.97C774.106 345.603 781.926 341.617 789.746 339.01C797.566 336.25 805.693 334.87 814.126 334.87C829.46 334.87 841.573 339.163 850.466 347.75C859.36 356.183 863.806 367.99 863.806 383.17V434C863.806 436.453 864.266 438.293 865.186 439.52C866.26 440.593 867.946 441.207 870.246 441.36V457C868.253 457.307 866.49 457.537 864.956 457.69C863.576 457.843 862.426 457.92 861.506 457.92C856.753 457.92 853.15 456.617 850.696 454.01C848.396 451.403 847.093 448.643 846.786 445.73L846.326 438.14C841.113 444.887 834.29 450.1 825.856 453.78C817.423 457.46 809.066 459.3 800.786 459.3C792.813 459.3 785.683 457.69 779.396 454.47C773.11 451.097 768.203 446.65 764.676 441.13C761.15 435.457 759.386 429.17 759.386 422.27ZM837.586 430.78C839.426 428.633 840.883 426.487 841.956 424.34C843.03 422.04 843.566 420.123 843.566 418.59V403.64C838.813 401.8 833.83 400.42 828.616 399.5C823.403 398.427 818.266 397.89 813.206 397.89C802.933 397.89 794.576 399.96 788.136 404.1C781.85 408.087 778.706 413.607 778.706 420.66C778.706 424.493 779.703 428.25 781.696 431.93C783.843 435.457 786.91 438.37 790.896 440.67C795.036 442.97 800.096 444.12 806.076 444.12C812.363 444.12 818.343 442.893 824.016 440.44C829.69 437.833 834.213 434.613 837.586 430.78ZM962.64 459.3C952.673 459.3 943.32 457.69 934.58 454.47C925.84 451.097 918.326 446.113 912.04 439.52L919.86 425.26C926.76 431.7 933.66 436.3 940.56 439.06C947.46 441.82 954.513 443.2 961.72 443.2C970 443.2 976.747 441.667 981.96 438.6C987.173 435.38 989.78 430.703 989.78 424.57C989.78 420.123 988.4 416.827 985.64 414.68C983.033 412.533 979.277 410.77 974.37 409.39C969.463 407.857 963.637 406.17 956.89 404.33C948.61 401.877 941.633 399.27 935.96 396.51C930.286 393.75 925.993 390.3 923.08 386.16C920.166 382.02 918.71 376.807 918.71 370.52C918.71 362.853 920.703 356.413 924.69 351.2C928.676 345.833 934.12 341.77 941.02 339.01C948.073 336.25 956.047 334.87 964.94 334.87C973.833 334.87 981.883 336.25 989.09 339.01C996.297 341.77 1002.51 345.833 1007.72 351.2L998.52 365.23C993.767 360.323 988.553 356.72 982.88 354.42C977.207 351.967 970.843 350.74 963.79 350.74C959.65 350.74 955.587 351.277 951.6 352.35C947.613 353.27 944.317 355.033 941.71 357.64C939.103 360.093 937.8 363.62 937.8 368.22C937.8 372.053 938.796 375.12 940.79 377.42C942.937 379.567 946.003 381.407 949.99 382.94C954.13 384.473 959.113 386.16 964.94 388C973.987 390.607 981.807 393.213 988.4 395.82C995.147 398.427 1000.36 401.8 1004.04 405.94C1007.72 410.08 1009.56 415.83 1009.56 423.19C1009.56 434.537 1005.27 443.43 996.68 449.87C988.093 456.157 976.746 459.3 962.64 459.3Z" fill="#B9B6B5"/>
</svg>
