<svg width="994" height="404" viewBox="0 0 994 404" fill="none" xmlns="http://www.w3.org/2000/svg">
<path d="M153.25 179V52.5L101 148.5H84.5L32 52.5V179H3.99996V1.5H34L92.75 110L151.5 1.5H181.5V179H153.25Z" fill="#62929E"/>
<path d="M272.779 1.5H299.279L368.279 179H338.779L320.029 130.75H251.529L233.029 179H203.279L272.779 1.5ZM314.529 110L286.029 32.25L256.529 110H314.529Z" fill="#62929E"/>
<path d="M503.879 26.25H444.879V179H416.629V26.25H357.379V1.5H503.879V26.25Z" fill="#62929E"/>
<path d="M649.432 154.25V179H527.682V1.5H647.182V26.25H555.682V76.75H634.932V100H555.682V154.25H649.432Z" fill="#62929E"/>
<path d="M752.316 180.25C738.15 180.25 726.15 177.833 716.316 173C706.65 168.167 698.816 161.583 692.816 153.25C686.983 144.917 682.65 135.417 679.816 124.75C677.15 114.083 675.816 103 675.816 91.5V1.5H703.816V91.5C703.816 99.6667 704.65 107.583 706.316 115.25C707.983 122.75 710.65 129.5 714.316 135.5C717.983 141.5 722.9 146.25 729.066 149.75C735.4 153.25 743.15 155 752.316 155C761.65 155 769.4 153.25 775.566 149.75C781.9 146.083 786.816 141.25 790.316 135.25C793.983 129.083 796.65 122.25 798.316 114.75C799.983 107.25 800.816 99.5 800.816 91.5V1.5H829.066V91.5C829.066 103.667 827.566 115.167 824.566 126C821.733 136.667 817.233 146.083 811.066 154.25C805.066 162.25 797.233 168.583 787.566 173.25C777.9 177.917 766.15 180.25 752.316 180.25Z" fill="#62929E"/>
<path d="M971.305 43.25C969.638 41.4167 967.221 39.5 964.055 37.5C960.888 35.3333 957.138 33.3333 952.805 31.5C948.471 29.6667 943.805 28.1667 938.805 27C933.805 25.8333 928.638 25.25 923.305 25.25C911.638 25.25 902.971 27.4167 897.305 31.75C891.638 36.0833 888.805 42.0833 888.805 49.75C888.805 55.4167 890.388 59.9167 893.555 63.25C896.721 66.4167 901.555 69.0833 908.055 71.25C914.555 73.4167 922.721 75.75 932.555 78.25C944.555 81.0833 954.971 84.5 963.805 88.5C972.638 92.3333 979.388 97.5 984.055 104C988.721 110.5 991.055 119.083 991.055 129.75C991.055 138.75 989.388 146.5 986.055 153C982.721 159.5 978.055 164.833 972.055 169C966.055 173 959.138 176 951.305 178C943.471 179.833 935.055 180.75 926.055 180.75C917.221 180.75 908.388 179.833 899.555 178C890.888 176.167 882.555 173.5 874.555 170C866.721 166.333 859.471 161.917 852.805 156.75L865.555 132.75C867.721 134.917 870.805 137.333 874.805 140C878.971 142.5 883.721 144.917 889.055 147.25C894.555 149.583 900.471 151.583 906.805 153.25C913.305 154.75 919.888 155.5 926.555 155.5C937.721 155.5 946.221 153.583 952.055 149.75C958.055 145.75 961.055 140.083 961.055 132.75C961.055 126.75 959.138 122 955.305 118.5C951.471 114.833 945.888 111.75 938.555 109.25C931.221 106.75 922.471 104.25 912.305 101.75C900.638 98.5833 890.888 95.1667 883.055 91.5C875.221 87.6667 869.305 82.8333 865.305 77C861.471 71 859.555 63.4167 859.555 54.25C859.555 42.5833 862.388 32.75 868.055 24.75C873.721 16.5833 881.388 10.5 891.055 6.49999C900.888 2.33333 911.888 0.25 924.055 0.25C932.055 0.25 939.638 1.16666 946.805 2.99999C953.971 4.66667 960.638 7 966.805 9.99999C973.138 13 978.888 16.4167 984.055 20.25L971.305 43.25Z" fill="#62929E"/>
<path d="M181.34 401H161.1V333.84C161.1 321.267 159.03 311.99 154.89 306.01C150.903 300.03 144.923 297.04 136.95 297.04C128.823 297.04 121.463 300.03 114.87 306.01C108.277 311.837 103.6 319.427 100.84 328.78V401H80.6V333.84C80.6 321.113 78.6066 311.837 74.62 306.01C70.6333 300.03 64.6533 297.04 56.68 297.04C48.7066 297.04 41.3466 299.953 34.6 305.78C28.0066 311.453 23.33 319.043 20.57 328.55V401H0.329956V280.94H18.73V306.7C23.6366 297.807 30 290.983 37.82 286.23C45.64 281.323 54.4566 278.87 64.27 278.87C74.2366 278.87 82.21 281.63 88.19 287.15C94.17 292.517 97.85 299.493 99.23 308.08C104.597 298.573 111.113 291.367 118.78 286.46C126.447 281.4 135.187 278.87 145 278.87C151.9 278.87 157.65 280.173 162.25 282.78C167.003 285.233 170.76 288.76 173.52 293.36C176.28 297.807 178.273 303.097 179.5 309.23C180.727 315.363 181.34 322.033 181.34 329.24V401Z" fill="#FDFDFF"/>
<path d="M291.24 403.3C282.194 403.3 273.914 401.69 266.4 398.47C259.04 395.097 252.6 390.573 247.08 384.9C241.714 379.073 237.497 372.403 234.43 364.89C231.517 357.377 230.06 349.403 230.06 340.97C230.06 329.623 232.667 319.273 237.88 309.92C243.094 300.567 250.3 293.053 259.5 287.38C268.854 281.707 279.51 278.87 291.47 278.87C303.584 278.87 314.087 281.783 322.98 287.61C332.027 293.283 339.004 300.797 343.91 310.15C348.97 319.35 351.5 329.317 351.5 340.05C351.5 341.583 351.424 343.117 351.27 344.65C351.27 346.03 351.194 347.103 351.04 347.87H251.45C252.064 355.69 254.21 362.667 257.89 368.8C261.724 374.78 266.63 379.533 272.61 383.06C278.59 386.433 285.03 388.12 291.93 388.12C299.29 388.12 306.19 386.28 312.63 382.6C319.224 378.92 323.747 374.09 326.2 368.11L343.68 372.94C341.074 378.767 337.164 383.98 331.95 388.58C326.89 393.18 320.834 396.783 313.78 399.39C306.88 401.997 299.367 403.3 291.24 403.3ZM250.76 333.84H332.64C332.027 326.02 329.804 319.12 325.97 313.14C322.137 307.16 317.23 302.483 311.25 299.11C305.27 295.737 298.677 294.05 291.47 294.05C284.417 294.05 277.9 295.737 271.92 299.11C265.94 302.483 261.034 307.16 257.2 313.14C253.52 319.12 251.374 326.02 250.76 333.84Z" fill="#FDFDFF"/>
<path d="M440.469 403.3C430.502 403.3 421.149 401.69 412.409 398.47C403.669 395.097 396.156 390.113 389.869 383.52L397.689 369.26C404.589 375.7 411.489 380.3 418.389 383.06C425.289 385.82 432.342 387.2 439.549 387.2C447.829 387.2 454.576 385.667 459.789 382.6C465.002 379.38 467.609 374.703 467.609 368.57C467.609 364.123 466.229 360.827 463.469 358.68C460.862 356.533 457.106 354.77 452.199 353.39C447.292 351.857 441.466 350.17 434.719 348.33C426.439 345.877 419.462 343.27 413.789 340.51C408.116 337.75 403.822 334.3 400.909 330.16C397.996 326.02 396.539 320.807 396.539 314.52C396.539 306.853 398.532 300.413 402.519 295.2C406.506 289.833 411.949 285.77 418.849 283.01C425.902 280.25 433.876 278.87 442.769 278.87C451.662 278.87 459.712 280.25 466.919 283.01C474.126 285.77 480.336 289.833 485.549 295.2L476.349 309.23C471.596 304.323 466.382 300.72 460.709 298.42C455.036 295.967 448.672 294.74 441.619 294.74C437.479 294.74 433.416 295.277 429.429 296.35C425.442 297.27 422.146 299.033 419.539 301.64C416.932 304.093 415.629 307.62 415.629 312.22C415.629 316.053 416.626 319.12 418.619 321.42C420.766 323.567 423.832 325.407 427.819 326.94C431.959 328.473 436.942 330.16 442.769 332C451.816 334.607 459.636 337.213 466.229 339.82C472.976 342.427 478.189 345.8 481.869 349.94C485.549 354.08 487.389 359.83 487.389 367.19C487.389 378.537 483.096 387.43 474.509 393.87C465.922 400.157 454.576 403.3 440.469 403.3Z" fill="#FDFDFF"/>
<path d="M578.074 403.3C568.107 403.3 558.754 401.69 550.014 398.47C541.274 395.097 533.76 390.113 527.474 383.52L535.294 369.26C542.194 375.7 549.094 380.3 555.994 383.06C562.894 385.82 569.947 387.2 577.154 387.2C585.434 387.2 592.18 385.667 597.394 382.6C602.607 379.38 605.214 374.703 605.214 368.57C605.214 364.123 603.834 360.827 601.074 358.68C598.467 356.533 594.71 354.77 589.804 353.39C584.897 351.857 579.07 350.17 572.324 348.33C564.044 345.877 557.067 343.27 551.394 340.51C545.72 337.75 541.427 334.3 538.514 330.16C535.6 326.02 534.144 320.807 534.144 314.52C534.144 306.853 536.137 300.413 540.124 295.2C544.11 289.833 549.554 285.77 556.454 283.01C563.507 280.25 571.481 278.87 580.374 278.87C589.267 278.87 597.317 280.25 604.524 283.01C611.73 285.77 617.94 289.833 623.154 295.2L613.954 309.23C609.2 304.323 603.987 300.72 598.314 298.42C592.641 295.967 586.277 294.74 579.224 294.74C575.084 294.74 571.02 295.277 567.034 296.35C563.047 297.27 559.75 299.033 557.144 301.64C554.537 304.093 553.234 307.62 553.234 312.22C553.234 316.053 554.23 319.12 556.224 321.42C558.37 323.567 561.437 325.407 565.424 326.94C569.564 328.473 574.547 330.16 580.374 332C589.421 334.607 597.24 337.213 603.834 339.82C610.58 342.427 615.794 345.8 619.474 349.94C623.154 354.08 624.994 359.83 624.994 367.19C624.994 378.537 620.7 387.43 612.114 393.87C603.527 400.157 592.18 403.3 578.074 403.3Z" fill="#FDFDFF"/>
<path d="M674.508 401V280.94H694.748V401H674.508ZM674.508 258.4V233.1H694.748V258.4H674.508Z" fill="#FDFDFF"/>
<path d="M743.386 366.27C743.386 358.603 745.533 352.01 749.826 346.49C754.273 340.817 760.33 336.447 767.996 333.38C775.663 330.313 784.556 328.78 794.676 328.78C800.043 328.78 805.716 329.24 811.696 330.16C817.676 330.927 822.966 332.153 827.566 333.84V325.1C827.566 315.9 824.806 308.693 819.286 303.48C813.766 298.113 805.946 295.43 795.826 295.43C789.233 295.43 782.87 296.657 776.736 299.11C770.756 301.41 764.393 304.783 757.646 309.23L750.286 294.97C758.106 289.603 765.926 285.617 773.746 283.01C781.566 280.25 789.693 278.87 798.126 278.87C813.46 278.87 825.573 283.163 834.466 291.75C843.36 300.183 847.806 311.99 847.806 327.17V378C847.806 380.453 848.266 382.293 849.186 383.52C850.26 384.593 851.946 385.207 854.246 385.36V401C852.253 401.307 850.49 401.537 848.956 401.69C847.576 401.843 846.426 401.92 845.506 401.92C840.753 401.92 837.15 400.617 834.696 398.01C832.396 395.403 831.093 392.643 830.786 389.73L830.326 382.14C825.113 388.887 818.29 394.1 809.856 397.78C801.423 401.46 793.066 403.3 784.786 403.3C776.813 403.3 769.683 401.69 763.396 398.47C757.11 395.097 752.203 390.65 748.676 385.13C745.15 379.457 743.386 373.17 743.386 366.27ZM821.586 374.78C823.426 372.633 824.883 370.487 825.956 368.34C827.03 366.04 827.566 364.123 827.566 362.59V347.64C822.813 345.8 817.83 344.42 812.616 343.5C807.403 342.427 802.266 341.89 797.206 341.89C786.933 341.89 778.576 343.96 772.136 348.1C765.85 352.087 762.706 357.607 762.706 364.66C762.706 368.493 763.703 372.25 765.696 375.93C767.843 379.457 770.91 382.37 774.896 384.67C779.036 386.97 784.096 388.12 790.076 388.12C796.363 388.12 802.343 386.893 808.016 384.44C813.69 381.833 818.213 378.613 821.586 374.78Z" fill="#FDFDFF"/>
<path d="M946.64 403.3C936.673 403.3 927.32 401.69 918.58 398.47C909.84 395.097 902.326 390.113 896.04 383.52L903.86 369.26C910.76 375.7 917.66 380.3 924.56 383.06C931.46 385.82 938.513 387.2 945.72 387.2C954 387.2 960.746 385.667 965.96 382.6C971.173 379.38 973.78 374.703 973.78 368.57C973.78 364.123 972.4 360.827 969.64 358.68C967.033 356.533 963.276 354.77 958.37 353.39C953.463 351.857 947.636 350.17 940.89 348.33C932.61 345.877 925.633 343.27 919.96 340.51C914.286 337.75 909.993 334.3 907.08 330.16C904.166 326.02 902.71 320.807 902.71 314.52C902.71 306.853 904.703 300.413 908.69 295.2C912.676 289.833 918.12 285.77 925.02 283.01C932.073 280.25 940.046 278.87 948.94 278.87C957.833 278.87 965.883 280.25 973.09 283.01C980.296 285.77 986.506 289.833 991.72 295.2L982.52 309.23C977.766 304.323 972.553 300.72 966.88 298.42C961.206 295.967 954.843 294.74 947.79 294.74C943.65 294.74 939.586 295.277 935.6 296.35C931.613 297.27 928.316 299.033 925.71 301.64C923.103 304.093 921.8 307.62 921.8 312.22C921.8 316.053 922.796 319.12 924.79 321.42C926.936 323.567 930.003 325.407 933.99 326.94C938.13 328.473 943.113 330.16 948.94 332C957.986 334.607 965.806 337.213 972.4 339.82C979.146 342.427 984.36 345.8 988.04 349.94C991.72 354.08 993.56 359.83 993.56 367.19C993.56 378.537 989.266 387.43 980.68 393.87C972.093 400.157 960.746 403.3 946.64 403.3Z" fill="#FDFDFF"/>
</svg>
