<svg width="750" height="750" viewBox="0 0 750 750" fill="none" xmlns="http://www.w3.org/2000/svg">
<rect width="750" height="750" rx="40" fill="#393D3F"/>
<path d="M263.611 424.492L376.944 574.333L604.722 254.333L605.278 677.667H541.944L541.389 539.889C541.389 524.704 541.574 508.222 541.944 490.444C542.315 472.296 543.611 451.741 545.833 428.778C534.352 449.148 523.055 467.111 511.944 482.667C501.204 497.852 491.389 511.926 482.5 524.889L374.722 677.667L263.611 524.889V424.492Z" fill="#B9B6B5"/>
<path d="M144.722 676.333L144.722 72.3333L376.945 392.333L604.722 72.3333V162.833L545.834 246.778C534.352 267.148 523.056 285.111 511.945 300.667C501.204 315.852 491.389 329.926 482.5 342.889L374.722 495.667L263.611 342.889C254.352 329.926 244.352 315.852 233.611 300.667C223.241 285.111 212.13 267.148 200.278 246.778C202.5 269.741 203.796 290.296 204.167 308.444C204.537 326.222 204.722 342.704 204.722 357.889V676.333H144.722Z" fill="#62929E"/>
</svg>
