<svg width="82" height="32" viewBox="0 0 82 32" fill="none" xmlns="http://www.w3.org/2000/svg">
<path d="M12.6249 13.9172V4.0681L8.31121 11.5425H6.94899L2.61464 4.0681V13.9172H0.302991V0.0973229H2.77976L7.6301 8.54495L12.4804 0.0973229H14.9572V13.9172H12.6249Z" fill="#62929E"/>
<path d="M22.4931 0.0973229H24.6809L30.3775 13.9172H27.942L26.394 10.1605H20.7387L19.2114 13.9172H16.7553L22.4931 0.0973229ZM25.94 8.54495L23.587 2.49147L21.1515 8.54495H25.94Z" fill="#62929E"/>
<path d="M41.5725 2.02432H36.7015V13.9172H34.3692V2.02432H29.4776V0.0973229H41.5725V2.02432Z" fill="#62929E"/>
<path d="M53.5891 11.9902V13.9172H43.5376V0.0973229H53.4034V2.02432H45.8492V5.95616H52.392V7.76637H45.8492V11.9902H53.5891Z" fill="#62929E"/>
<path d="M62.0832 14.0145C60.9136 14.0145 59.9229 13.8263 59.1111 13.45C58.313 13.0737 57.6663 12.5611 57.1709 11.9123C56.6893 11.2635 56.3316 10.5239 56.0977 9.69337C55.8775 8.86288 55.7674 7.99995 55.7674 7.10457V0.0973229H58.0791V7.10457C58.0791 7.74042 58.1479 8.3568 58.2855 8.95371C58.4231 9.53765 58.6432 10.0632 58.946 10.5303C59.2487 10.9975 59.6546 11.3673 60.1637 11.6398C60.6866 11.9123 61.3264 12.0486 62.0832 12.0486C62.8537 12.0486 63.4936 11.9123 64.0027 11.6398C64.5256 11.3543 64.9315 10.978 65.2204 10.5109C65.5232 10.0308 65.7433 9.49872 65.8809 8.91478C66.0185 8.33084 66.0873 7.72744 66.0873 7.10457V0.0973229H68.4196V7.10457C68.4196 8.05185 68.2958 8.94722 68.0481 9.79069C67.8142 10.6212 67.4426 11.3543 66.9335 11.9902C66.4382 12.6131 65.7915 13.1062 64.9934 13.4695C64.1953 13.8328 63.2253 14.0145 62.0832 14.0145Z" fill="#62929E"/>
<path d="M80.1626 3.34791C80.025 3.20517 79.8255 3.05594 79.5641 2.90022C79.3027 2.73153 78.9931 2.57581 78.6353 2.43307C78.2775 2.29033 77.8923 2.17355 77.4795 2.08271C77.0667 1.99188 76.6401 1.94646 76.1998 1.94646C75.2366 1.94646 74.5211 2.11515 74.0533 2.45254C73.5854 2.78992 73.3515 3.25707 73.3515 3.85399C73.3515 4.29519 73.4822 4.64555 73.7437 4.90508C74.0051 5.15163 74.4041 5.35925 74.9408 5.52794C75.4774 5.69664 76.1516 5.87831 76.9635 6.07295C77.9542 6.29355 78.8142 6.55957 79.5434 6.871C80.2727 7.16946 80.83 7.57173 81.2153 8.0778C81.6005 8.58388 81.7932 9.25217 81.7932 10.0827C81.7932 10.7834 81.6556 11.3868 81.3804 11.8929C81.1052 12.3989 80.7199 12.8142 80.2246 13.1386C79.7292 13.45 79.1582 13.6836 78.5115 13.8393C77.8647 13.9821 77.1699 14.0534 76.4268 14.0534C75.6976 14.0534 74.9683 13.9821 74.239 13.8393C73.5235 13.6966 72.8355 13.489 72.1751 13.2165C71.5283 12.931 70.9298 12.5871 70.3794 12.1848L71.432 10.3162C71.6109 10.4849 71.8655 10.6731 72.1957 10.8807C72.5397 11.0754 72.9318 11.2635 73.3722 11.4452C73.8262 11.6268 74.3147 11.7826 74.8376 11.9123C75.3742 12.0291 75.9177 12.0875 76.4681 12.0875C77.39 12.0875 78.0918 11.9383 78.5734 11.6398C79.0687 11.3284 79.3164 10.8872 79.3164 10.3162C79.3164 9.84908 79.1582 9.47926 78.8417 9.20675C78.5252 8.92127 78.0643 8.68121 77.4588 8.48656C76.8534 8.29192 76.131 8.09727 75.2917 7.90262C74.3285 7.65607 73.5235 7.39006 72.8768 7.10457C72.2301 6.80612 71.7416 6.4298 71.4114 5.97563C71.0949 5.50848 70.9367 4.91805 70.9367 4.20435C70.9367 3.296 71.1706 2.5304 71.6384 1.90753C72.1063 1.27169 72.7392 0.798048 73.5373 0.486614C74.3491 0.162205 75.2573 0 76.2617 0C76.9222 0 77.5483 0.07137 78.1399 0.21411C78.7316 0.343875 79.282 0.525544 79.7911 0.759118C80.314 0.992694 80.7887 1.25871 81.2153 1.55717L80.1626 3.34791Z" fill="#62929E"/>
<path d="M14.944 31.2017H13.273V25.9728C13.273 24.9938 13.1021 24.2716 12.7603 23.806C12.4312 23.3404 11.9375 23.1076 11.2792 23.1076C10.6083 23.1076 10.0006 23.3404 9.4563 23.806C8.91196 24.2596 8.52586 24.8506 8.298 25.5788V31.2017H6.62701V25.9728C6.62701 24.9819 6.46244 24.2596 6.1333 23.806C5.80417 23.3404 5.31047 23.1076 4.6522 23.1076C3.99393 23.1076 3.38629 23.3344 2.8293 23.7881C2.28496 24.2298 1.89886 24.8207 1.67099 25.5609V31.2017H0V21.8541H1.51908V23.8597C1.92417 23.1673 2.44952 22.636 3.09513 22.2659C3.74075 21.8839 4.46864 21.6929 5.27882 21.6929C6.10166 21.6929 6.75993 21.9078 7.25363 22.3376C7.74733 22.7554 8.05115 23.2986 8.16508 23.9671C8.60815 23.227 9.14615 22.6659 9.77911 22.2838C10.4121 21.8899 11.1336 21.6929 11.9438 21.6929C12.5135 21.6929 12.9882 21.7944 13.3679 21.9973C13.7604 22.1883 14.0705 22.4629 14.2984 22.8211C14.5262 23.1673 14.6908 23.5791 14.7921 24.0567C14.8934 24.5342 14.944 25.0535 14.944 25.6146V31.2017Z" fill="#B9B6B5"/>
<path d="M24.0173 31.3808C23.2704 31.3808 22.5868 31.2555 21.9665 31.0048C21.3589 30.7421 20.8272 30.3899 20.3715 29.9482C19.9284 29.4946 19.5803 28.9752 19.3271 28.3903C19.0866 27.8053 18.9663 27.1845 18.9663 26.5279C18.9663 25.6445 19.1815 24.8386 19.6119 24.1104C20.0423 23.3822 20.6373 22.7972 21.3968 22.3555C22.169 21.9138 23.0488 21.6929 24.0362 21.6929C25.0363 21.6929 25.9035 21.9197 26.6377 22.3734C27.3846 22.8151 27.9606 23.4001 28.3656 24.1283C28.7834 24.8446 28.9923 25.6206 28.9923 26.4563C28.9923 26.5757 28.9859 26.695 28.9733 26.8144C28.9733 26.9219 28.9669 27.0054 28.9543 27.0651H20.7322C20.7829 27.674 20.9601 28.2172 21.2639 28.6947C21.5804 29.1603 21.9855 29.5304 22.4792 29.805C22.9729 30.0676 23.5046 30.1989 24.0742 30.1989C24.6819 30.1989 25.2515 30.0557 25.7832 29.7691C26.3275 29.4826 26.701 29.1066 26.9035 28.641L28.3466 29.017C28.1314 29.4707 27.8086 29.8766 27.3782 30.2347C26.9605 30.5929 26.4605 30.8734 25.8781 31.0764C25.3085 31.2793 24.6882 31.3808 24.0173 31.3808ZM20.6753 25.9728H27.4352C27.3846 25.3639 27.201 24.8267 26.8845 24.3611C26.5681 23.8955 26.163 23.5314 25.6693 23.2687C25.1756 23.0061 24.6312 22.8748 24.0362 22.8748C23.4539 22.8748 22.9159 23.0061 22.4222 23.2687C21.9285 23.5314 21.5234 23.8955 21.207 24.3611C20.9031 24.8267 20.7259 25.3639 20.6753 25.9728Z" fill="#B9B6B5"/>
<path d="M36.3374 31.3808C35.5146 31.3808 34.7424 31.2555 34.0208 31.0048C33.2993 30.7421 32.679 30.3541 32.1599 29.8408L32.8055 28.7305C33.3752 29.2319 33.9449 29.5901 34.5145 29.805C35.0842 30.0198 35.6665 30.1273 36.2615 30.1273C36.9451 30.1273 37.502 30.0079 37.9325 29.7691C38.3629 29.5184 38.5781 29.1543 38.5781 28.6768C38.5781 28.3306 38.4641 28.0739 38.2363 27.9068C38.0211 27.7396 37.7109 27.6023 37.3058 27.4949C36.9007 27.3755 36.4197 27.2442 35.8627 27.1009C35.1791 26.9099 34.6031 26.707 34.1347 26.4921C33.6664 26.2772 33.3119 26.0086 33.0714 25.6862C32.8309 25.3639 32.7106 24.958 32.7106 24.4685C32.7106 23.8716 32.8752 23.3702 33.2043 22.9643C33.5334 22.5465 33.9828 22.2301 34.5525 22.0152C35.1348 21.8003 35.7931 21.6929 36.5273 21.6929C37.2615 21.6929 37.9261 21.8003 38.5211 22.0152C39.1161 22.2301 39.6288 22.5465 40.0592 22.9643L39.2996 24.0567C38.9072 23.6747 38.4768 23.3941 38.0084 23.215C37.54 23.024 37.0147 22.9285 36.4324 22.9285C36.0906 22.9285 35.7551 22.9703 35.426 23.0539C35.0968 23.1255 34.8247 23.2628 34.6095 23.4657C34.3943 23.6567 34.2867 23.9313 34.2867 24.2895C34.2867 24.5879 34.3689 24.8267 34.5335 25.0058C34.7107 25.1729 34.9639 25.3162 35.293 25.4355C35.6348 25.5549 36.0463 25.6862 36.5273 25.8295C37.2742 26.0325 37.9198 26.2354 38.4641 26.4384C39.0211 26.6413 39.4515 26.904 39.7554 27.2263C40.0592 27.5486 40.2111 27.9963 40.2111 28.5693C40.2111 29.4528 39.8566 30.1452 39.1477 30.6466C38.4388 31.1361 37.5021 31.3808 36.3374 31.3808Z" fill="#B9B6B5"/>
<path d="M47.6979 31.3808C46.8751 31.3808 46.1029 31.2555 45.3813 31.0048C44.6597 30.7421 44.0395 30.3541 43.5204 29.8408L44.166 28.7305C44.7357 29.2319 45.3054 29.5901 45.875 29.805C46.4447 30.0198 47.027 30.1273 47.622 30.1273C48.3056 30.1273 48.8625 30.0079 49.293 29.7691C49.7234 29.5184 49.9386 29.1543 49.9386 28.6768C49.9386 28.3306 49.8246 28.0739 49.5968 27.9068C49.3816 27.7396 49.0714 27.6023 48.6663 27.4949C48.2612 27.3755 47.7802 27.2442 47.2232 27.1009C46.5396 26.9099 45.9636 26.707 45.4952 26.4921C45.0269 26.2772 44.6724 26.0086 44.4319 25.6862C44.1914 25.3639 44.0711 24.958 44.0711 24.4685C44.0711 23.8716 44.2357 23.3702 44.5648 22.9643C44.8939 22.5465 45.3433 22.2301 45.913 22.0152C46.4953 21.8003 47.1536 21.6929 47.8878 21.6929C48.622 21.6929 49.2866 21.8003 49.8816 22.0152C50.4766 22.2301 50.9893 22.5465 51.4197 22.9643L50.6601 24.0567C50.2677 23.6747 49.8373 23.3941 49.3689 23.215C48.9005 23.024 48.3752 22.9285 47.7929 22.9285C47.4511 22.9285 47.1156 22.9703 46.7865 23.0539C46.4573 23.1255 46.1852 23.2628 45.97 23.4657C45.7548 23.6567 45.6472 23.9313 45.6472 24.2895C45.6472 24.5879 45.7294 24.8267 45.894 25.0058C46.0712 25.1729 46.3244 25.3162 46.6535 25.4355C46.9953 25.5549 47.4068 25.6862 47.8878 25.8295C48.6347 26.0325 49.2803 26.2354 49.8246 26.4384C50.3816 26.6413 50.812 26.904 51.1159 27.2263C51.4197 27.5486 51.5716 27.9963 51.5716 28.5693C51.5716 29.4528 51.2171 30.1452 50.5082 30.6466C49.7993 31.1361 48.8625 31.3808 47.6979 31.3808Z" fill="#B9B6B5"/>
<path d="M55.6595 31.2017V21.8541H57.3305V31.2017H55.6595ZM55.6595 20.0991V18.1293H57.3305V20.0991H55.6595Z" fill="#B9B6B5"/>
<path d="M61.3459 28.4977C61.3459 27.9008 61.5232 27.3875 61.8776 26.9577C62.2447 26.516 62.7448 26.1757 63.3777 25.937C64.0107 25.6982 64.7449 25.5788 65.5804 25.5788C66.0235 25.5788 66.4918 25.6146 66.9855 25.6862C67.4792 25.7459 67.916 25.8414 68.2958 25.9728V25.2923C68.2958 24.576 68.0679 24.0149 67.6122 23.609C67.1564 23.1912 66.5108 22.9822 65.6753 22.9822C65.131 22.9822 64.6056 23.0777 64.0993 23.2687C63.6056 23.4478 63.0802 23.7105 62.5232 24.0567L61.9156 22.9464C62.5612 22.5286 63.2068 22.2182 63.8524 22.0152C64.498 21.8003 65.169 21.6929 65.8652 21.6929C67.1311 21.6929 68.1312 22.0272 68.8654 22.6957C69.5996 23.3523 69.9667 24.2716 69.9667 25.4535V29.411C69.9667 29.602 70.0047 29.7453 70.0807 29.8408C70.1693 29.9243 70.3085 29.9721 70.4984 29.984V31.2017C70.3339 31.2256 70.1883 31.2435 70.0617 31.2555C69.9478 31.2674 69.8528 31.2734 69.7769 31.2734C69.3844 31.2734 69.0869 31.1719 68.8844 30.9689C68.6945 30.766 68.5869 30.5511 68.5616 30.3243L68.5236 29.7333C68.0932 30.2586 67.5299 30.6645 66.8336 30.951C66.1374 31.2375 65.4475 31.3808 64.7639 31.3808C64.1056 31.3808 63.517 31.2555 62.9979 31.0048C62.4789 30.7421 62.0738 30.3959 61.7827 29.9661C61.4915 29.5244 61.3459 29.0349 61.3459 28.4977ZM67.802 29.1603C67.954 28.9932 68.0742 28.826 68.1628 28.6589C68.2514 28.4798 68.2958 28.3306 68.2958 28.2112V27.0472C67.9033 26.904 67.4919 26.7965 67.0615 26.7249C66.6311 26.6413 66.207 26.5995 65.7893 26.5995C64.9411 26.5995 64.2512 26.7607 63.7195 27.083C63.2005 27.3934 62.941 27.8232 62.941 28.3724C62.941 28.6708 63.0233 28.9633 63.1878 29.2498C63.3651 29.5244 63.6182 29.7512 63.9474 29.9303C64.2892 30.1094 64.7069 30.1989 65.2006 30.1989C65.7196 30.1989 66.2133 30.1034 66.6817 29.9124C67.1501 29.7094 67.5236 29.4587 67.802 29.1603Z" fill="#B9B6B5"/>
<path d="M78.1263 31.3808C77.3035 31.3808 76.5313 31.2555 75.8097 31.0048C75.0882 30.7421 74.4679 30.3541 73.9489 29.8408L74.5945 28.7305C75.1641 29.2319 75.7338 29.5901 76.3034 29.805C76.8731 30.0198 77.4554 30.1273 78.0504 30.1273C78.734 30.1273 79.291 30.0079 79.7214 29.7691C80.1518 29.5184 80.367 29.1543 80.367 28.6768C80.367 28.3306 80.253 28.0739 80.0252 27.9068C79.81 27.7396 79.4998 27.6023 79.0947 27.4949C78.6897 27.3755 78.2086 27.2442 77.6516 27.1009C76.968 26.9099 76.392 26.707 75.9237 26.4921C75.4553 26.2772 75.1008 26.0086 74.8603 25.6862C74.6198 25.3639 74.4995 24.958 74.4995 24.4685C74.4995 23.8716 74.6641 23.3702 74.9932 22.9643C75.3223 22.5465 75.7718 22.2301 76.3414 22.0152C76.9237 21.8003 77.582 21.6929 78.3162 21.6929C79.0504 21.6929 79.715 21.8003 80.31 22.0152C80.905 22.2301 81.4177 22.5465 81.8481 22.9643L81.0885 24.0567C80.6961 23.6747 80.2657 23.3941 79.7973 23.215C79.3289 23.024 78.8036 22.9285 78.2213 22.9285C77.8795 22.9285 77.544 22.9703 77.2149 23.0539C76.8857 23.1255 76.6136 23.2628 76.3984 23.4657C76.1832 23.6567 76.0756 23.9313 76.0756 24.2895C76.0756 24.5879 76.1579 24.8267 76.3224 25.0058C76.4996 25.1729 76.7528 25.3162 77.082 25.4355C77.4238 25.5549 77.8352 25.6862 78.3162 25.8295C79.0631 26.0325 79.7087 26.2354 80.2531 26.4384C80.8101 26.6413 81.2405 26.904 81.5443 27.2263C81.8481 27.5486 82 27.9963 82 28.5693C82 29.4528 81.6456 30.1452 80.9366 30.6466C80.2277 31.1361 79.291 31.3808 78.1263 31.3808Z" fill="#B9B6B5"/>
</svg>
